<svg xmlns="http://www.w3.org/2000/svg" width="960" height="540" viewBox="0 0 960 540" role="img" aria-labelledby="title desc">
  <title id="title">Metroshell demo capture placeholder</title>
  <desc id="desc">An illustrative terminal frame clearly labeled as a placeholder, not a live map capture.</desc>
  <rect width="960" height="540" fill="#09090d"/>
  <rect x="28" y="28" width="904" height="484" rx="8" fill="#11131a" stroke="#a8abb5" stroke-width="2"/>
  <rect x="48" y="48" width="596" height="444" fill="#0b0d13" stroke="#777b86" stroke-width="2"/>
  <rect x="668" y="48" width="244" height="444" fill="#11131a" stroke="#777b86" stroke-width="2"/>
  <g stroke="#343847" stroke-width="2" opacity=".8">
    <path d="M78 402 L190 314 L274 350 L360 192 L470 250 L594 112" fill="none"/>
    <path d="M104 132 L238 220 L312 154 L426 374 L560 326" fill="none"/>
  </g>
  <g fill="none" stroke="#ff4fa3" stroke-width="5">
    <path d="M96 418 L190 314 L274 350 L360 192 L470 250 L594 112"/>
  </g>
  <g fill="#ff4fa3">
    <circle cx="96" cy="418" r="8"/><circle cx="190" cy="314" r="8"/><circle cx="274" cy="350" r="8"/>
    <circle cx="360" cy="192" r="8"/><circle cx="470" cy="250" r="8"/><circle cx="594" cy="112" r="8"/>
  </g>
  <g font-family="monospace" fill="#e8e8ed">
    <text x="692" y="92" font-size="24" fill="#ff4fa3" font-weight="700">METROSHELL</text>
    <text x="692" y="124" font-size="15" fill="#c5c6cc">DEMO CAPTURE PLACEHOLDER</text>
    <text x="692" y="178" font-size="16">FROM: Dwarka Sector 21</text>
    <text x="692" y="208" font-size="16">TO: New Delhi</text>
    <text x="692" y="266" font-size="18" fill="#ff4fa3">JOURNEY</text>
    <text x="692" y="296" font-size="16">2 stops · 1 transfer</text>
    <text x="692" y="352" font-size="18" fill="#c5c6cc">SCHEDULED</text>
    <text x="692" y="382" font-size="16">NEXT SERVICE — STATIC GTFS</text>
    <text x="692" y="452" font-size="14" fill="#9699a4">Illustrative only</text>
    <text x="76" y="474" font-size="15" fill="#9699a4">Replace with the final terminal screenshot or GIF.</text>
  </g>
</svg>
